<svg width="512" height="115" viewBox="0 0 512 115" fill="none" xmlns="http://www.w3.org/2000/svg">
<path d="M54.4518 114.286C47.3011 114.286 40.2204 112.864 33.614 110.101C27.0076 107.338 21.0049 103.289 15.9486 98.1839C10.8922 93.079 6.88135 87.0186 4.14489 80.3488C1.40843 73.6789 -3.12567e-07 66.5302 0 59.3108C3.12567e-07 52.0914 1.40844 44.9428 4.1449 38.2729C6.88136 31.6031 10.8922 25.5427 15.9486 20.4378C21.0049 15.3329 27.0076 11.2835 33.614 8.52075C40.2204 5.75801 47.3011 4.33604 54.4518 4.33604L54.4518 114.286Z" fill="white"/>
<path d="M157.527 4.33604V114.286H136.513V67.3635H87.1228V114.286H65.9557V4.33604H87.1228V48.7805H136.513V4.33604H157.527Z" fill="white"/>
<path d="M211.365 114.286C204.923 114.286 199.094 113.202 193.879 111.034C188.664 108.762 184.216 105.717 180.534 101.897C176.853 97.9739 173.99 93.5346 171.945 88.5791C170.002 83.5204 169.031 78.2036 169.031 72.6287C169.031 64.8857 170.718 57.8139 174.092 51.4131C177.569 45.0122 182.477 39.9019 188.817 36.082C195.259 32.159 202.826 30.1974 211.518 30.1974C220.312 30.1974 227.828 32.159 234.066 36.082C240.304 39.9019 245.059 45.0122 248.331 51.4131C251.705 57.7106 253.392 64.5244 253.392 71.8544C253.392 73.0933 253.341 74.3838 253.239 75.7259C253.137 76.9647 253.035 77.9971 252.932 78.823H190.811C191.22 82.9526 192.396 86.566 194.339 89.6631C196.384 92.7603 198.941 95.1348 202.008 96.7866C205.178 98.3352 208.553 99.1095 212.132 99.1095C216.222 99.1095 220.057 98.1287 223.636 96.1672C227.317 94.1024 229.822 91.4182 231.152 88.1145L248.791 93.07C246.848 97.1996 244.036 100.865 240.355 104.065C236.776 107.265 232.532 109.795 227.624 111.653C222.715 113.408 217.296 114.286 211.365 114.286ZM190.351 65.66H232.379C231.97 61.5305 230.794 57.9687 228.851 54.9748C227.01 51.8776 224.556 49.5031 221.488 47.8513C218.421 46.0962 214.995 45.2187 211.212 45.2187C207.53 45.2187 204.156 46.0962 201.088 47.8513C198.123 49.5031 195.668 51.8776 193.726 54.9748C191.885 57.9687 190.76 61.5305 190.351 65.66Z" fill="white"/>
<path d="M264.896 0H285.45V87.0305C285.45 90.7471 286.064 93.2765 287.291 94.6186C288.518 95.8575 290.205 96.4769 292.352 96.4769C293.988 96.4769 295.676 96.2704 297.414 95.8575C299.152 95.4445 300.686 94.9283 302.016 94.3089L304.777 110.104C302.016 111.447 298.794 112.479 295.113 113.202C291.432 113.924 288.109 114.286 285.143 114.286C278.701 114.286 273.69 112.582 270.111 109.175C266.635 105.665 264.896 100.71 264.896 94.3089V0Z" fill="white"/>
<path d="M316.28 114.286V33.1397H336.834V114.286H316.28ZM316.28 21.8351V1.23887H336.834V21.8351H316.28Z" fill="white"/>
<path d="M390.519 114.286C383.974 114.286 378.095 113.202 372.88 111.034C367.664 108.762 363.216 105.665 359.535 101.742C355.956 97.819 353.195 93.3281 351.252 88.2694C349.309 83.2107 348.338 77.8939 348.338 72.319C348.338 66.6408 349.309 61.2724 351.252 56.2137C353.195 51.155 355.956 46.664 359.535 42.741C363.216 38.8179 367.664 35.7723 372.88 33.6043C378.095 31.333 383.974 30.1974 390.519 30.1974C397.063 30.1974 402.892 31.333 408.005 33.6043C413.22 35.7723 417.668 38.8179 421.349 42.741C425.031 46.664 427.791 51.155 429.632 56.2137C431.575 61.2724 432.546 66.6408 432.546 72.319C432.546 77.8939 431.575 83.2107 429.632 88.2694C427.791 93.3281 425.031 97.819 421.349 101.742C417.77 105.665 413.373 108.762 408.158 111.034C402.943 113.202 397.063 114.286 390.519 114.286ZM369.505 72.319C369.505 77.068 370.425 81.3008 372.266 85.0174C374.107 88.6307 376.612 91.4698 379.782 93.5346C382.952 95.5994 386.531 96.6318 390.519 96.6318C394.405 96.6318 397.932 95.5994 401.102 93.5346C404.272 91.3666 406.778 88.4759 408.618 84.8625C410.561 81.1459 411.533 76.9131 411.533 72.1641C411.533 67.5183 410.561 63.3372 408.618 59.6206C406.778 55.9039 404.272 53.0133 401.102 50.9485C397.932 48.8837 394.405 47.8513 390.519 47.8513C386.531 47.8513 382.952 48.9353 379.782 51.1033C376.612 53.1681 374.107 56.0588 372.266 59.7754C370.425 63.3888 369.505 67.57 369.505 72.319Z" fill="white"/>
<path d="M479.789 114.286C472.938 114.286 466.393 113.15 460.156 110.879C453.918 108.607 448.55 105.252 444.05 100.813L451.413 87.3403C456.219 91.2633 460.923 94.154 465.524 96.0123C470.228 97.8706 474.727 98.7998 479.022 98.7998C483.01 98.7998 486.18 98.0771 488.532 96.6318C490.986 95.1864 492.213 93.0184 492.213 90.1277C492.213 88.1662 491.549 86.6692 490.219 85.6368C488.89 84.5012 486.947 83.5204 484.391 82.6945C481.937 81.8686 478.92 80.9394 475.341 79.907C469.41 77.9455 464.451 76.0356 460.463 74.1773C456.475 72.319 453.458 69.9961 451.413 67.2086C449.47 64.3179 448.499 60.6529 448.499 56.2137C448.499 50.8452 449.828 46.2511 452.487 42.4312C455.247 38.5082 459.031 35.4626 463.837 33.2946C468.745 31.1266 474.472 30.0426 481.016 30.0426C486.743 30.0426 492.162 30.9717 497.275 32.83C502.388 34.5851 507.041 37.4758 511.233 41.5021L502.95 54.6651C498.86 51.4647 494.974 49.1418 491.293 47.6964C487.612 46.1479 483.879 45.3736 480.096 45.3736C477.948 45.3736 475.903 45.6317 473.96 46.1479C472.12 46.6641 470.586 47.5416 469.359 48.7805C468.234 49.9161 467.672 51.5679 467.672 53.7359C467.672 55.6975 468.183 57.2461 469.206 58.3817C470.33 59.4141 471.966 60.3432 474.114 61.1691C476.363 61.9951 479.073 62.9242 482.243 63.9566C488.685 65.8149 494.105 67.7248 498.502 69.6864C503.001 71.6479 506.376 74.074 508.626 76.9647C510.875 79.7522 512 83.6236 512 88.5791C512 96.6318 509.086 102.929 503.257 107.472C497.428 112.014 489.606 114.286 479.789 114.286Z" fill="white"/>
</svg>
